<svg width="1200" height="1200" xmlns="http://www.w3.org/2000/svg"
    xmlns:xlink="http://www.w3.org/1999/xlink" version="1.1">
    <g transform="scale(12.306710045115464) translate(-1.2486133575439453, -2.5356106758117676)">
        <g fill="#00ff4c"> 
            <path xmlns="http://www.w3.org/2000/svg"
                d="M51.813,12.411l1.033,0.118c0.987,0.112,1.978,0.224,2.963,0.35c4.875,0.618,9.481,1.911,13.694,3.844  c2.164,0.994,4.274,2.141,6.509,3.356c0.563,0.305,1.123,0.61,1.686,0.913c-0.016,4.397-0.014,8.833-0.014,13.138  c0.002,5.733,0.004,11.661-0.033,17.485c-0.041,7.014-2.248,13.482-6.748,19.781c-5.154,7.219-11.988,13.186-20.857,18.197  c-9.5-5.604-16.646-12.094-21.801-19.787c-4.072-6.074-6.013-12.445-5.933-19.479c0.088-7.869,0.052-15.851,0.017-23.57  c-0.009-1.973-0.018-3.946-0.025-5.918c7.729-4.677,15.561-7.374,23.884-8.229c0.477-0.049,0.954-0.1,1.431-0.152l0.447-0.048  H51.813 M52.1,7.411c-1.435,0-2.868,0-4.302,0c-0.706,0.075-1.415,0.153-2.122,0.226c-10.028,1.031-19.16,4.541-27.611,9.952  c-0.583,0.374-0.769,0.793-0.767,1.465c0.03,10.406,0.131,20.813,0.015,31.218c-0.093,8.195,2.264,15.583,6.779,22.319  c6.511,9.716,15.35,16.833,25.462,22.485c0.111,0.063,0.267,0.092,0.426,0.092c0.18,0,0.365-0.038,0.497-0.107  c9.666-5.146,18.085-11.783,24.498-20.76c4.836-6.769,7.629-14.277,7.678-22.656c0.066-10.779,0.007-21.559,0.054-32.337  c0.004-0.941-0.306-1.483-1.08-1.89c-3.343-1.751-6.61-3.667-10.034-5.238c-4.808-2.206-9.89-3.593-15.15-4.26  C54.994,7.735,53.546,7.579,52.1,7.411L52.1,7.411z" />
            <path xmlns="http://www.w3.org/2000/svg"
                d="M48.491,62.945l-3.173,3.174l-13.541-13.54l3.174-3.173L48.491,62.945z" />
            <rect xmlns="http://www.w3.org/2000/svg" x="28.258" y="59.134"
                transform="matrix(0.7072 -0.707 0.707 0.7072 -32.6077 43.7845)" width="16.609"
                height="4.259" />
            <g xmlns="http://www.w3.org/2000/svg">
                <g>
                    <polygon
                        points="58.51,46.317 69.379,35.45 71.896,26.006 62.703,28.773 51.834,39.642   " />
                </g>
                <g>
                    <rect x="40.956" y="49.962"
                        transform="matrix(-0.707 0.7072 -0.7072 -0.707 112.8808 62.5994)"
                        width="5.035" height="9.442" />
                </g>
            </g>
            <path xmlns="http://www.w3.org/2000/svg"
                d="M51.509,62.585l3.173,3.174l13.541-13.54l-3.175-3.173L51.509,62.585z" />
            <rect xmlns="http://www.w3.org/2000/svg" x="55.134" y="58.776"
                transform="matrix(-0.7071 -0.7071 0.7071 -0.7071 65.229 148.8313)" width="16.609"
                height="4.261" />
            <g xmlns="http://www.w3.org/2000/svg">
                <polygon
                    points="58.089,49.205 37.297,28.413 28.103,25.646 30.621,35.088 51.413,55.881 54.971,59.439 61.648,52.766  " />
            </g>
        </g>
    </g>
</svg>